<svg width="273" height="51" viewBox="0 0 273 51" xmlns="http://www.w3.org/2000/svg"><title>logo-welsh</title><desc>Created with Sketch.</desc><defs><linearGradient x1=".006%" y1="49.995%" x2="100.031%" y2="49.995%" id="a"><stop stop-color="#783D8F" offset="0%"/><stop stop-color="#682782" offset="100%"/></linearGradient><linearGradient x1="38.301%" y1="-29.909%" x2="51.468%" y2="58.898%" id="b"><stop stop-color="#fff" offset="0%"/><stop stop-color="#fff" stop-opacity=".8" offset="100%"/></linearGradient><linearGradient x1="34.287%" y1="7.026%" x2="68.227%" y2="63.417%" id="c"><stop stop-color="#fff" offset="0%"/><stop stop-color="#fff" stop-opacity=".8" offset="100%"/></linearGradient><linearGradient x1="63.636%" y1="68.75%" x2="35.364%" y2="29.593%" id="d"><stop stop-color="#fff" offset="0%"/><stop stop-color="#fff" stop-opacity=".8" offset="100%"/></linearGradient><linearGradient x1="82.829%" y1="49.905%" x2="1.319%" y2="49.905%" id="e"><stop stop-color="#fff" offset="0%"/><stop stop-color="#fff" stop-opacity=".5" offset="100%"/></linearGradient><linearGradient x1="50.059%" y1="1.862%" x2="50.059%" y2="97.165%" id="f"><stop stop-color="#1E1E1C" offset="0%"/><stop stop-color="#1E1E1C" stop-opacity="0" offset="100%"/></linearGradient><linearGradient x1="-.889%" y1="49.88%" x2="99.653%" y2="49.88%" id="g"><stop stop-color="#fff" offset="0%"/><stop stop-color="#fff" stop-opacity=".8" offset="100%"/></linearGradient><linearGradient x1="2.944%" y1="49.922%" x2="97.95%" y2="49.922%" id="h"><stop stop-color="#1E1E1C" offset="0%"/><stop stop-color="#1E1E1C" stop-opacity="0" offset="100%"/></linearGradient></defs><g fill="none"><path d="M67.968 30.968c.128 0 .256.024.384.072.128.048.251.131.368.248l2.144 2.256c-.939 1.227-2.115 2.152-3.528 2.776-1.413.624-3.085.936-5.016.936-1.771 0-3.357-.301-4.76-.904-1.403-.603-2.592-1.435-3.568-2.496s-1.725-2.32-2.248-3.776c-.523-1.456-.784-3.037-.784-4.744 0-1.739.283-3.336.848-4.792s1.36-2.712 2.384-3.768c1.024-1.056 2.251-1.877 3.68-2.464 1.429-.587 3.003-.88 4.72-.88.875 0 1.699.077 2.472.232.773.155 1.496.368 2.168.64.672.272 1.291.6 1.856.984.565.384 1.067.8 1.504 1.248l-1.824 2.448c-.117.149-.256.285-.416.408-.16.123-.384.184-.672.184-.192 0-.373-.043-.544-.128-.171-.085-.352-.189-.544-.312l-.632-.4c-.229-.144-.501-.277-.816-.4-.315-.123-.683-.227-1.104-.312-.421-.085-.915-.128-1.48-.128-.896 0-1.715.165-2.456.496-.741.331-1.381.813-1.92 1.448-.539.635-.955 1.413-1.248 2.336-.293.923-.44 1.976-.44 3.16 0 1.195.163 2.256.488 3.184.325.928.768 1.709 1.328 2.344.56.635 1.213 1.117 1.96 1.448.747.331 1.547.496 2.4.496.491 0 .939-.024 1.344-.072.405-.048.784-.128 1.136-.24.352-.112.683-.261.992-.448.309-.187.624-.424.944-.712.128-.107.267-.195.416-.264.149-.069.304-.104.464-.104zm20.166-10.56l-8.864 20.896c-.149.331-.331.573-.544.728-.213.155-.555.232-1.024.232h-3.712l3.2-6.72-6.624-15.136h4.384c.384 0 .68.085.888.256.208.171.36.373.456.608l2.72 7.152c.256.651.464 1.317.624 2l.352-1.024c.117-.341.24-.677.368-1.008l2.464-7.12c.096-.245.267-.451.512-.616.245-.165.512-.248.8-.248h4zm2.918 16.592v-13.184l-1.088-.224c-.373-.085-.675-.219-.904-.4-.229-.181-.344-.448-.344-.8v-1.952h2.336v-.944c0-.949.152-1.808.456-2.576.304-.768.741-1.424 1.312-1.968.571-.544 1.267-.965 2.088-1.264.821-.299 1.755-.448 2.8-.448.405 0 .779.024 1.12.072.341.048.699.125 1.072.232l-.096 2.416c-.011.171-.053.312-.128.424-.075.112-.173.203-.296.272s-.253.12-.392.152-.277.048-.416.048c-.437 0-.827.043-1.168.128-.341.085-.627.237-.856.456-.229.219-.403.507-.52.864-.117.357-.176.808-.176 1.352v.784h3.888v3.392h-3.728v13.168h-4.96zm15.35-14.032c.512-.896 1.101-1.6 1.768-2.112s1.432-.768 2.296-.768c.747 0 1.355.176 1.824.528l-.32 3.648c-.053.235-.141.395-.264.48-.123.085-.291.128-.504.128l-.336-.016-.432-.04-.456-.048-.424-.024c-.725 0-1.304.192-1.736.576-.432.384-.797.917-1.096 1.6v10.08h-4.96v-16.592h2.944c.245 0 .451.021.616.064.165.043.304.109.416.2.112.091.197.211.256.36s.109.331.152.544l.256 1.392zm12.87-2.56v16.592h-4.96v-16.592h4.96zm.512-4.544c0 .395-.08.765-.24 1.112-.16.347-.379.651-.656.912s-.6.469-.968.624c-.368.155-.76.232-1.176.232-.405 0-.784-.077-1.136-.232-.352-.155-.664-.363-.936-.624s-.485-.565-.64-.912c-.155-.347-.232-.717-.232-1.112 0-.405.077-.784.232-1.136.155-.352.368-.661.64-.928s.584-.475.936-.624c.352-.149.731-.224 1.136-.224.416 0 .808.075 1.176.224.368.149.691.357.968.624s.496.576.656.928c.16.352.24.731.24 1.136zm4.422 21.136v-13.184l-1.088-.224c-.373-.085-.675-.219-.904-.4-.229-.181-.344-.448-.344-.8v-1.952h2.336v-.24c0-1.003.173-1.949.52-2.84.347-.891.883-1.664 1.608-2.32.725-.656 1.651-1.176 2.776-1.56 1.125-.384 2.467-.576 4.024-.576.48 0 .976.024 1.488.072.512.048.955.12 1.328.216l-.16 2.512c-.021.267-.155.443-.4.528-.245.085-.507.128-.784.128-1.109 0-2.027.085-2.752.256-.725.171-1.299.424-1.72.76-.421.336-.715.755-.88 1.256-.165.501-.248 1.077-.248 1.728v.08h10.528v16.56h-4.96v-13.168h-5.408v13.168h-4.96zm27.606-6.752c-.992.043-1.808.128-2.448.256-.64.128-1.147.288-1.52.48s-.632.411-.776.656c-.144.245-.216.512-.216.8 0 .565.155.963.464 1.192.309.229.763.344 1.36.344.64 0 1.2-.112 1.68-.336.48-.224.965-.587 1.456-1.088v-2.304zm-8.928-7.536c1.003-.885 2.115-1.544 3.336-1.976 1.221-.432 2.531-.648 3.928-.648 1.003 0 1.907.163 2.712.488.805.325 1.488.779 2.048 1.36.56.581.989 1.272 1.288 2.072.299.8.448 1.675.448 2.624v10.368h-2.272c-.469 0-.824-.064-1.064-.192-.24-.128-.44-.395-.6-.8l-.352-.912c-.416.352-.816.661-1.2.928s-.781.493-1.192.68c-.411.187-.848.325-1.312.416-.464.091-.979.136-1.544.136-.757 0-1.445-.099-2.064-.296-.619-.197-1.144-.488-1.576-.872-.432-.384-.765-.861-1-1.432s-.352-1.229-.352-1.976c0-.597.149-1.203.448-1.816.299-.613.816-1.173 1.552-1.68.736-.507 1.728-.931 2.976-1.272 1.248-.341 2.821-.533 4.72-.576v-.704c0-.971-.2-1.672-.6-2.104-.4-.432-.968-.648-1.704-.648-.587 0-1.067.064-1.44.192s-.707.272-1 .432c-.293.16-.579.304-.856.432s-.608.192-.992.192c-.341 0-.629-.085-.864-.256-.235-.171-.427-.373-.576-.608l-.896-1.552zm27.222 2.144c-.373-.416-.779-.707-1.216-.872-.437-.165-.896-.248-1.376-.248-.459 0-.88.091-1.264.272-.384.181-.717.472-1 .872-.283.4-.504.92-.664 1.56-.16.64-.24 1.413-.24 2.32 0 .875.064 1.611.192 2.208.128.597.307 1.08.536 1.448.229.368.504.632.824.792.32.16.677.24 1.072.24.363 0 .691-.035.984-.104.293-.069.563-.168.808-.296.245-.128.477-.291.696-.488.219-.197.435-.424.648-.68v-7.024zm4.96-11.808v23.952h-3.072c-.619 0-1.024-.277-1.216-.832l-.384-1.264c-.331.352-.677.672-1.04.96-.363.288-.755.536-1.176.744-.421.208-.875.368-1.36.48-.485.112-1.011.168-1.576.168-.864 0-1.664-.192-2.4-.576-.736-.384-1.371-.939-1.904-1.664-.533-.725-.952-1.613-1.256-2.664-.304-1.051-.456-2.248-.456-3.592 0-1.237.171-2.387.512-3.448.341-1.061.824-1.979 1.448-2.752.624-.773 1.373-1.379 2.248-1.816.875-.437 1.84-.656 2.896-.656.864 0 1.589.123 2.176.368.587.245 1.12.576 1.6.992v-8.4h4.96zm20.012 12.08c1.408 0 2.421-.336 3.04-1.008.619-.672.928-1.611.928-2.816 0-.533-.08-1.019-.24-1.456-.16-.437-.403-.813-.728-1.128-.325-.315-.736-.557-1.232-.728-.496-.171-1.085-.256-1.768-.256h-2.816v7.392h2.816zm0-11.44c1.643 0 3.053.195 4.232.584 1.179.389 2.149.925 2.912 1.608.763.683 1.325 1.488 1.688 2.416.363.928.544 1.931.544 3.008 0 1.163-.187 2.229-.56 3.2-.373.971-.944 1.803-1.712 2.496-.768.693-1.741 1.235-2.92 1.624-1.179.389-2.573.584-4.184.584h-2.816v7.792h-5.408v-23.312h8.224zm16.214 9.28c.512-.896 1.101-1.6 1.768-2.112s1.432-.768 2.296-.768c.747 0 1.355.176 1.824.528l-.32 3.648c-.053.235-.141.395-.264.48-.123.085-.291.128-.504.128l-.336-.016-.432-.04-.456-.048-.424-.024c-.725 0-1.304.192-1.736.576-.432.384-.797.917-1.096 1.6v10.08h-4.96v-16.592h2.944c.245 0 .451.021.616.064.165.043.304.109.416.2.112.091.197.211.256.36s.109.331.152.544l.256 1.392zm16.198 7.28c-.992.043-1.808.128-2.448.256-.64.128-1.147.288-1.52.48s-.632.411-.776.656c-.144.245-.216.512-.216.8 0 .565.155.963.464 1.192.309.229.763.344 1.36.344.64 0 1.2-.112 1.68-.336.48-.224.965-.587 1.456-1.088v-2.304zm-8.928-7.536c1.003-.885 2.115-1.544 3.336-1.976 1.221-.432 2.531-.648 3.928-.648 1.003 0 1.907.163 2.712.488.805.325 1.488.779 2.048 1.36.56.581.989 1.272 1.288 2.072.299.8.448 1.675.448 2.624v10.368h-2.272c-.469 0-.824-.064-1.064-.192-.24-.128-.44-.395-.6-.8l-.352-.912c-.416.352-.816.661-1.2.928s-.781.493-1.192.68c-.411.187-.848.325-1.312.416-.464.091-.979.136-1.544.136-.757 0-1.445-.099-2.064-.296-.619-.197-1.144-.488-1.576-.872-.432-.384-.765-.861-1-1.432s-.352-1.229-.352-1.976c0-.597.149-1.203.448-1.816.299-.613.816-1.173 1.552-1.68.736-.507 1.728-.931 2.976-1.272 1.248-.341 2.821-.533 4.72-.576v-.704c0-.971-.2-1.672-.6-2.104-.4-.432-.968-.648-1.704-.648-.587 0-1.067.064-1.44.192s-.707.272-1 .432c-.293.16-.579.304-.856.432s-.608.192-.992.192c-.341 0-.629-.085-.864-.256-.235-.171-.427-.373-.576-.608l-.896-1.552zm41.398-2.304l-5.152 16.592h-4.032c-.213 0-.395-.064-.544-.192-.149-.128-.267-.341-.352-.64l-2.368-8.272c-.117-.373-.221-.741-.312-1.104-.091-.363-.173-.731-.248-1.104-.075.373-.157.747-.248 1.12-.091.373-.195.747-.312 1.12l-2.4 8.24c-.16.555-.512.832-1.056.832h-3.84l-5.152-16.592h3.968c.352 0 .648.083.888.248.24.165.403.371.488.616l1.664 7.44c.139.565.261 1.112.368 1.64.107.528.203 1.059.288 1.592.139-.533.285-1.064.44-1.592.155-.528.323-1.075.504-1.64l2.08-7.456c.085-.245.245-.451.48-.616.235-.165.512-.248.832-.248h2.208c.352 0 .648.083.888.248.24.165.403.371.488.616l1.984 7.456.472 1.648c.155.533.296 1.072.424 1.616.085-.533.187-1.067.304-1.6.117-.533.251-1.088.4-1.664l1.76-7.44c.085-.245.245-.451.48-.616.235-.165.512-.248.832-.248h3.776zm3.222 16.592v-13.184l-1.088-.224c-.373-.085-.675-.219-.904-.4-.229-.181-.344-.448-.344-.8v-1.952h2.336v-.944c0-.949.152-1.808.456-2.576.304-.768.741-1.424 1.312-1.968.571-.544 1.267-.965 2.088-1.264.821-.299 1.755-.448 2.8-.448.405 0 .779.024 1.12.072.341.048.699.125 1.072.232l-.096 2.416c-.011.171-.053.312-.128.424-.075.112-.173.203-.296.272s-.253.12-.392.152-.277.048-.416.048c-.437 0-.827.043-1.168.128-.341.085-.627.237-.856.456-.229.219-.403.507-.52.864-.117.357-.176.808-.176 1.352v.784h3.888v3.392h-3.728v13.168h-4.96z" fill="#fff"/><g><g><path d="M25.197 32.744v5.1h-12.16v-25.094h12.102v5.1h12.628v-5.158l-12.628-12.46h-12.16c-.935.927-12.102 12.055-12.569 12.518v25.21l12.628 12.46v-.058h12.102l12.628-12.518h.058v-5.1h-12.628z" opacity=".61" id="Shape" fill="url(#a)"/><path id="Shape" fill="url(#b)" d="M25.255 32.686h12.628v5.1h-12.628z"/><path id="Shape" fill="url(#c)" d="M.468 37.844l12.628 12.518v-37.67h-12.628z"/><path id="Shape" fill="url(#d)" d="M37.825 37.786l-12.628 12.518h-12.102v-12.518z"/><path id="Shape" fill="url(#e)" d="M25.197 17.792h12.628v-5.216l-12.628-12.402z"/><path d="M25.197 12.692h-24.788c6.138 2.26 18.006 2.55 24.788 0z" opacity=".47" id="Shape" fill="url(#f)"/><path id="Shape" fill="url(#g)" d="M25.197.174h-12.16l-12.569 12.518h24.788z"/><path d="M14.44 32.223c-.234-5.448-.643-11.069-1.345-15.416v33.556c.877-6.549 1.578-13.156 1.345-18.14z" opacity=".47" fill="url(#h)"/></g><path d="M5.482 36.77c-.457-.484-.8-1.038-.8-1.453 0-.346.194-.646.629-.646.503 0 .8.254 1.326.715l2.675 2.387h1.154v-5.373h-1.543v2.675l-1.589-1.43c-.754-.68-1.395-1.015-2.24-1.015-1.28 0-2.138.807-2.138 2.387 0 1.049.514 2.064 1.257 2.813l1.269-1.061zm-2.526-7.593c0 1.695 1.143 2.848 3.795 2.848 2.64 0 3.818-.911 3.818-2.779 0-1.81-1.109-2.837-3.852-2.837-2.64 0-3.761 1.038-3.761 2.767zm6.104.046c0 .519-.549.865-2.195.865-1.829 0-2.355-.334-2.355-.888 0-.519.492-.865 2.229-.865 1.84 0 2.32.369 2.32.888zm-.034-4.077h1.44v-4.393h-1.44v1.199h-4.515l-1.406-.115v1.603l1.44 2.375 1.257-.715-.606-1.211h3.829v1.257zm-4.355-4.918v-2.767c1.772 1.695 3.681 1.868 4.984 1.868h.812v-2.029h-.72c-.994 0-3.532-.035-5.384-2.329h-1.257v5.258h1.566z" fill="#752590"/></g></g></svg>